# xmcd
#
# Track frame offsets: 
#        210
#        14302
#        22528
#        33750
#        40650
#        51067
#        77175
#        97324
#        114521
#        122902
#        139058
#        156225
#        160353
#        173402
#        191516
#        198990
#        202930
#        237019
#        247251
#        260945
#        268352
#        282049
#        298058
#        314652
#
# Disc length: 4421 seconds
#
# Revision: 2
# Processed by: cddbd v1.5.2PL0 Copyright (c) Steve Scherf et al.
# Submitted via: ExactAudioCopy v0.99pb4
#
DISCID=59114318
DTITLE=Robert Shaw - The 1971 Party Tape
DYEAR=1971
DGENRE=Blues
TTITLE0=Piggly wiggly
TTITLE1=11:30 Saturday night
TTITLE2=Black gal
TTITLE3=Jump steady blues
TTITLE4=Hattie Green #1
TTITLE5=Throw me in the alley
TTITLE6=Jim nappy
TTITLE7=Don`t cry
TTITLE8=Melody in e flat
TTITLE9=Woman, oh woman
TTITLE10=Wood in my woodhouse
TTITLE11=Instrumental in G
TTITLE12=Dirty duckins #1
TTITLE13=Pine Top`s boogie woogie
TTITLE14=Saturday night special
TTITLE15=The Clinton
TTITLE16=The girl I used to love
TTITLE17=Whores is funky
TTITLE18=Hattie Green #2
TTITLE19=Four o`clock blues
TTITLE20=She used to be my baby
TTITLE21=People, people
TTITLE22=Dirty duckins #2
TTITLE23=Woke up early this morning
EXTD=
EXTT0=
EXTT1=
EXTT2=
EXTT3=
EXTT4=
EXTT5=
EXTT6=
EXTT7=
EXTT8=
EXTT9=
EXTT10=
EXTT11=
EXTT12=
EXTT13=
EXTT14=
EXTT15=
EXTT16=
EXTT17=
EXTT18=
EXTT19=
EXTT20=
EXTT21=
EXTT22=
EXTT23=
PLAYORDER=
